# xmcd
#
# Track frame offsets:
#	150
#	16859
#	34102
#	53331
#	72721
#	92954
#	107931
#	126272
#	141986
#	156632
#	174935
#	193396
#	212030
#	228383
#	246446
#	267924
#	289816
#	307788
#	324340
#
# Disc length: 4512 seconds
#
# Revision: 1
# Processed by: cddbd v1.5.2PL0 Copyright (c) Steve Scherf et al.
# Submitted via: audiograbber 1.83.01
#
DISCID=1e119e13
DTITLE=Jennifer Rush - The Power Of Love [CD2)
DYEAR=1899
DGENRE=Terror
TTITLE0=You´re My One And Only
TTITLE1=Ring Of Ice
TTITLE2=Same Heart
TTITLE3=Higher Ground
TTITLE4=You Don´t Know What You´ve Got (Until It´s Gone)
TTITLE5=Testify With My Heart
TTITLE6=Love Of A Stranger
TTITLE7=Never Gonna Turn Back Again
TTITLE8=Nobody Move
TTITLE9=Pleasure
TTITLE10=Rain Coming Down On Me
TTITLE11=Sidekick
TTITLE12=Dream Awake
TTITLE13=Who Wants To Live Forever
TTITLE14=Fortress
TTITLE15=Now That I Found You
TTITLE16=Credo
TTITLE17=Nunca digas nunca
TTITLE18=Betcha Neva
EXTD=
EXTT0=
EXTT1=
EXTT2=
EXTT3=
EXTT4=
EXTT5=
EXTT6=
EXTT7=
EXTT8=
EXTT9=
EXTT10=
EXTT11=
EXTT12=
EXTT13=
EXTT14=
EXTT15=
EXTT16=
EXTT17=
EXTT18=
PLAYORDER=
